<svg xmlns="http://www.w3.org/2000/svg" viewBox="2140 960 1450 1450">
  <path fill="#c29b6d" d="M2983.2,1203.2c-34.1-79.35-128.06-110.94-185.45-37.89,37.83-1.24,63.24-33.47,103.99-15.94,11.1,11.61-32.98,7.52-37.72,8.19-15.05,2.13-27.09,11.57-29.68,26.98-1.49,8.83,3.41,11.99,3.42,12.77,32.76-25.01,64.68-27.85,91.3,6.7l438.7,769.3h58c-145.71-254.62-293.59-524.74-442.55-770.11Z"/>
  <path fill="#c29b6d" d="M2785.74,1557.3c27.14-53.97,55.16-135.36,87.22-182.78,3.47-5.14,4.47-10.92,12.73-9.21l139.48,274.57c22.68,53.24,20,114.07-35.35,143.49-45.16,24.01-119.66,12.55-172.07,13.93,2.87-16.03,33.49-17.81,46.39-23.61,4.72-2.12,7.22,1.88,5.6-8.33-17.25-7.44-36.46-7.69-54.07-11.97-8.25-2.01-14.16.07-13.92-12.09l7.18-7.87,88.42,2.01c39.74,1.51,90.9-3.21,72.58-55.84-8.11-23.31-79.94-172.03-89.65-173.08l-44.92,85.52-13.59,27.22-54.76,114.03c16.46-2.6,28.04.06,34.73,8,10.79,6.21,25.48,9.3,44.08,9.28,17.58,2.35,42.49,8.76,26.44,28.56-18.55,5.29-36.73,11.34-54.53,18.15-106.43-.74-90.57,7.66-139.91,94.09-29.9,45.06-71.1,75.63-126.58,81.42-56.75,5.92-199.05,6.93-254.47-.54-76.16-10.27-90.52-76.21-61.12-139.05,41.4-88.48,121.27-216.47,174.86-301.14,28.24-44.62,57.17-87.08,118.49-72.04,27.7,6.79,54.68,39.56,84.58,18.72l184.15-313.46c22.35-12.71,63.75-34.37,89.65-28.39,25.99,6,34.92,21.65,5.31,28.4-31.29-1.8-46.54-.33-54.97,31.99.4-.79-128.93,237.41-147.31,266.69-31.59,50.34-62.92,95.42-130.91,73.51-30.63-9.87-53.66-41.3-81.77-6.19l-199.79,344.27-2.55,7.77v8.1s1.84,6.24,2.65,8.25c.72,1.79,3.37,6.92,3.37,6.92,7.14,6.04,16.93,9.76,26.21,10.79,53.41,5.91,182.09,5.3,236.04-.15,30.73-3.1,65.77-23.33,82.83-49.17,49.07-105.6,106.99-206.91,159.21-310.79"/>
  <path fill="#c29b6d" d="M3193.74,1973.3h-62l-93.45-178.69c10.67-18.9,26.85-35.2,31.5-57.3l123.95,235.99Z"/>
</svg>
